<?xml version="1.0" encoding="utf-8"?>
<!-- Generator: Adobe Illustrator 21.0.1, SVG Export Plug-In . SVG Version: 6.00 Build 0)  -->
<svg version="1.1" id="Layer_1" xmlns="http://www.w3.org/2000/svg" xmlns:xlink="http://www.w3.org/1999/xlink" x="0px" y="0px"
	 viewBox="0 0 1100 200" style="enable-background:new 0 0 1100 200;" xml:space="preserve" class="logo-primary">
<style type="text/css">
	.logo-primary-color{fill:#3A88C8;}
</style>
<g><path class="logo-primary-color" d="M214.1,200c5.7,0,12.3-2.7,15.9-11.6l12.7-31.3H337l12.7,31.3c3.6,8.9,10.2,11.6,15.9,11.6h12.4c8.2,0,12.6-6.2,9.3-14.3l-71.1-175C313.3,3.6,308.4,0,297.8,0h-15.8c-10.6,0-15.5,3.6-18.4,10.7l-47.9,117.9V13.7c0-7.6-6.2-13.7-13.8-13.7H186c-9.9,0-13.8,3.6-18,10.8l-60.1,103.5L47.7,10.8C43.5,3.6,39.5,0,29.6,0H13.8C6.2,0,0,6.1,0,13.7v172.6c0,7.6,6.2,13.7,13.8,13.7h8.3c7.6,0,13.8-6.1,13.8-13.7V57.1l51.8,89.3c4.2,7.2,9.3,10.8,15.9,10.8h8.3c6.6,0,11.8-3.6,15.9-10.8l51.8-89.3v129.1c0,7.6,6.2,13.7,13.8,13.7H214.1z M255.7,125.1l34.1-83.9l34.1,83.9H255.7z"/><path class="logo-primary-color" d="M697.5,200c42.4,0,73.1-22.9,86.2-58.1v44.4c0,7.6,6.2,13.7,13.8,13.7h128.1c5.7,0,12.3-2.7,15.9-11.6l12.7-31.3h94.3l12.7,31.3c3.6,8.9,10.2,11.6,15.9,11.6h12.4c8.2,0,12.6-6.2,9.3-14.3l-71.1-175C1024.8,3.6,1020,0,1009.3,0h-15.8c-10.6,0-15.5,3.6-18.4,10.7l-63.9,157.2h-91.5V116h74.8c6.4,0,11.5-5.1,11.5-11.4v-9.2c0-6.3-5.1-11.4-11.5-11.4h-74.8V32.1h89.2c6.4,0,11.5-5.1,11.5-11.4v-9.2c0-6.3-5.1-11.4-11.5-11.4H797.6c-7.6,0-13.8,6.1-13.8,13.7v45.1C770.6,23.8,739.9,0,697.5,0H502.2c-5.7,0-12.2,2.7-15.9,11.6l-54.7,131.3L376.9,11.6C373.2,2.7,366.7,0,361,0h-12.4c-8.2,0-12.6,6.2-9.3,14.3l71.1,175c2.9,7.2,8.1,10.7,17.1,10.7h8.3c8.9,0,14.1-3.6,17.1-10.7l63.9-157.2h33.5v135.8H515c-6.4,0-11.5,5.1-11.5,11.4v9.2c0,6.3,5.1,11.4,11.5,11.4H697.5z M632.8,32.1v135.8h-46.7V32.1H632.8z M697.5,167.9h-28.8V32.1h28.8c39.5,0,57.6,33,57.6,67.9C755.1,136.5,737,167.9,697.5,167.9z M967.3,125.1l34.1-83.9l34.1,83.9H967.3z"/></g>
</svg>
